<?xml version="1.0" standalone="no"?><!DOCTYPE svg PUBLIC "-//W3C//DTD SVG 1.1//EN" "http://www.w3.org/Graphics/SVG/1.1/DTD/svg11.dtd"><svg t="1591632110847" class="icon" viewBox="0 0 1024 1024" version="1.1" xmlns="http://www.w3.org/2000/svg" p-id="4436" width="32" height="32" xmlns:xlink="http://www.w3.org/1999/xlink"><defs><style type="text/css"></style></defs><path d="M878.7 912c-18.4 0-33.3-14.9-33.3-33.3 0-127.9-70.2-243.2-183.3-301-16.4-8.4-22.9-28.4-14.5-44.8 8.4-16.4 28.4-22.9 44.8-14.5C827.8 587.5 912 725.6 912 878.7c0 18.4-14.9 33.3-33.3 33.3zM145.3 912c-18.4 0-33.3-14.9-33.3-33.3 0-151.3 82.7-288.7 216-358.4 16.3-8.5 36.4-2.3 45 14.1 8.5 16.3 2.2 36.5-14.1 45-111.2 58.2-180.2 172.9-180.2 299.4 0 18.3-15 33.2-33.4 33.2zM512 535.9c-115.9 0-210.2-95.1-210.2-211.9 0-116.9 94.3-212 210.2-212s210.2 95.1 210.2 211.9c0 116.9-94.3 212-210.2 212z m0-357.2c-79.1 0-143.5 65.2-143.5 145.3 0 80.1 64.4 145.3 143.5 145.3S655.5 404.1 655.5 324c0-80.2-64.4-145.3-143.5-145.3zM513.4 872.6c-5.1 0-10.1-1.1-14.8-3.5L422 831.3c-13.3-6.6-20.6-21.1-18-35.7l37.8-211.4c2.8-15.9 16.7-27.5 32.8-27.5h74.7c16.1 0 30 11.6 32.8 27.5L620 795.5c2.6 14.4-4.6 28.8-17.6 35.5l-73.8 37.9c-4.8 2.5-10 3.7-15.2 3.7z m-39.4-90l39.1 19.3 36.9-19-28.6-159.7h-18.9L474 782.6z" p-id="4437" fill="#13227a"></path></svg>