<?xml version="1.0" standalone="no"?><!DOCTYPE svg PUBLIC "-//W3C//DTD SVG 1.1//EN" "http://www.w3.org/Graphics/SVG/1.1/DTD/svg11.dtd"><svg t="1591632417593" class="icon" viewBox="0 0 1198 1024" version="1.1" xmlns="http://www.w3.org/2000/svg" p-id="5296" width="37.4375" height="32" xmlns:xlink="http://www.w3.org/1999/xlink"><defs><style type="text/css"></style></defs><path d="M767.923916 579.7119s-176.689302-84.297896-346.710008-84.297896-346.710008 84.297896-346.710008 84.297896C35.803244 595.499944 4.911114 642.921073 4.911114 684.870533v189.000557h832.548592v-189.000557c0-42.348436-31.177112-89.02861-69.592787-105.158633zM421.384898 230.494044z m-227.074252 0A227.074251 227.074251 0 1 0 421.384898 3.419793a227.074251 227.074251 0 0 0-227.245241 227.074251" fill="#13227a" p-id="5297"></path><path d="M697.191199 347.792942l302.993654 0.683959c15.788044 0 28.498275 15.104085 28.498275 33.513971s-12.824224 33.456974-28.498275 33.399977l-302.993654-0.683958c-15.788044 0-28.498275-15.104085-28.498275-33.513971-0.113993-18.409885 12.767227-33.456974 28.498275-33.399978z" fill="#13227a" p-id="5298"></path><path d="M882.600973 230.038072l-0.683959 302.993655c0 15.788044-15.104085 28.498275-33.513971 28.498274s-33.456974-12.824224-33.399978-28.498274l0.683959-302.993655c0-15.788044 15.104085-28.498275 33.513971-28.498275 18.409885-0.17099 33.399978 12.71023 33.399978 28.498275z" fill="#13227a" p-id="5299"></path><path d="M770.431764 581.934766s-178.057219-85.152844-350.072804-85.152845-350.072804 85.152844-350.072804 85.152845C31.186523 597.836803 0.009411 645.770901 0.009411 688.119337v190.767449h840.699098v-190.824446c0-42.747412-31.462095-89.883558-70.276745-106.184571M191.061843 229.297117A229.297117 229.297117 0 1 0 420.35896 0a229.297117 229.297117 0 0 0-229.24012 229.297117" fill="#13227a" p-id="5300"></path></svg>