<?xml version="1.0" standalone="no"?><!DOCTYPE svg PUBLIC "-//W3C//DTD SVG 1.1//EN" "http://www.w3.org/Graphics/SVG/1.1/DTD/svg11.dtd"><svg t="1591632598473" class="icon" viewBox="0 0 1024 1024" version="1.1" xmlns="http://www.w3.org/2000/svg" p-id="6240" width="32" height="32" xmlns:xlink="http://www.w3.org/1999/xlink"><defs><style type="text/css"></style></defs><path d="M894.293333 993.28H129.706667c-58.026667 0-102.4-44.373333-102.4-102.4V122.88c0-58.026667 44.373333-102.4 102.4-102.4h764.586666c20.48 0 34.133333 13.653333 34.133334 34.133333s-13.653333 34.133333-34.133334 34.133334H129.706667c-20.48 0-34.133333 13.653333-34.133334 34.133333v768c0 20.48 13.653333 34.133333 34.133334 34.133333h764.586666c20.48 0 34.133333-13.653333 34.133334-34.133333v-232.106667c0-20.48 13.653333-34.133333 34.133333-34.133333s34.133333 13.653333 34.133333 34.133333v232.106667c0 58.026667-47.786667 102.4-102.4 102.4z" p-id="6241" fill="#13227a"></path><path d="M884.053333 389.12c-3.413333 0-10.24 0-13.653333-3.413333-17.066667-6.826667-23.893333-27.306667-17.066667-44.373334l71.68-163.84c6.826667-17.066667 27.306667-23.893333 44.373334-17.066666 20.48 6.826667 27.306667 27.306667 20.48 44.373333l-71.68 163.84c-6.826667 13.653333-20.48 20.48-34.133334 20.48zM805.546667 573.44s-3.413333-10.24-3.413334-27.306667c0-6.826667-3.413333-17.066667-3.413333-27.306666v-30.72c0-10.24-3.413333-20.48-3.413333-30.72 3.413333-6.826667 10.24-13.653333 20.48-17.066667 10.24-3.413333 20.48-6.826667 27.306666-6.826667h13.653334c3.413333 0 6.826667 0 10.24 3.413334l10.24 10.24c6.826667 6.826667 10.24 13.653333 17.066666 23.893333 3.413333 10.24 6.826667 17.066667 3.413334 27.306667-3.413333 6.826667-17.066667 13.653333-20.48 20.48l-20.48 20.48c-6.826667 6.826667-13.653333 13.653333-20.48 17.066666-10.24 10.24-20.48 17.066667-20.48 17.066667-3.413333 6.826667-6.826667 6.826667-10.24 0 0 3.413333 0 3.413333 0 0zM433.493333 686.08c-13.653333 0-30.72-3.413333-44.373333-10.24-27.306667-17.066667-44.373333-44.373333-44.373333-75.093333v-180.906667c0-30.72 17.066667-58.026667 44.373333-75.093333 27.306667-17.066667 58.026667-17.066667 85.333333 0l157.013334 92.16c27.306667 17.066667 44.373333 44.373333 44.373333 75.093333 0 30.72-17.066667 58.026667-44.373333 75.093333L477.866667 672.426667c-13.653333 6.826667-30.72 13.653333-44.373334 13.653333z m0-286.72c-3.413333 0-6.826667 0-10.24 3.413333-3.413333 0-10.24 6.826667-10.24 17.066667v180.906667c0 10.24 6.826667 13.653333 10.24 17.066666 3.413333 0 10.24 3.413333 17.066667 0l157.013333-92.16c6.826667-3.413333 10.24-13.653333 10.24-17.066666 0-3.413333 0-10.24-10.24-17.066667L443.733333 399.36h-10.24z" p-id="6242" fill="#13227a"></path></svg>