<?xml version="1.0" standalone="no"?><!DOCTYPE svg PUBLIC "-//W3C//DTD SVG 1.1//EN" "http://www.w3.org/Graphics/SVG/1.1/DTD/svg11.dtd"><svg t="1591632089810" class="icon" viewBox="0 0 1024 1024" version="1.1" xmlns="http://www.w3.org/2000/svg" p-id="3579" width="32" height="32" xmlns:xlink="http://www.w3.org/1999/xlink"><defs><style type="text/css"></style></defs><path d="M234.41187483 992.49378741a133.62303423 133.62303423 0 0 1-133.43998896-133.43998897V164.94620156A133.62303423 133.62303423 0 0 1 234.41187483 31.50621259h555.26777297a133.62303423 133.62303423 0 0 1 133.43998897 133.43998897v694.01607427a133.62303423 133.62303423 0 0 1-133.43998897 133.43998895z m0-902.23004882a74.86550821 74.86550821 0 0 0-74.7739856 74.77398558v694.01607427a74.86550821 74.86550821 0 0 0 74.7739856 74.77398558h555.26777297a74.86550821 74.86550821 0 0 0 74.7739856-74.77398558V164.94620156a74.86550821 74.86550821 0 0 0-74.7739856-74.77398558z" fill="#13227a" p-id="3580"></path><path d="M292.34569718 541.37876299a29.37876299 29.37876299 0 1 1 0-58.66600335h439.30860564a29.37876299 29.37876299 0 1 1 0 58.66600335zM292.34569718 680.12706427a29.37876299 29.37876299 0 1 1 0-58.29991287h299.73660072a29.37876299 29.37876299 0 1 1 0 58.75752601zM292.34569718 402.1728486a29.37876299 29.37876299 0 1 1 0-58.75752601h439.30860564a29.37876299 29.37876299 0 1 1 0 58.75752601z" fill="#13227a" p-id="3581"></path></svg>