<?xml version="1.0" standalone="no"?><!DOCTYPE svg PUBLIC "-//W3C//DTD SVG 1.1//EN" "http://www.w3.org/Graphics/SVG/1.1/DTD/svg11.dtd"><svg t="1591804365257" class="icon" viewBox="0 0 1024 1024" version="1.1" xmlns="http://www.w3.org/2000/svg" p-id="4932" width="32" height="32" xmlns:xlink="http://www.w3.org/1999/xlink"><defs><style type="text/css"></style></defs><path d="M572.595498 193.705417H279.33869c-30.285212 0-54.973158-24.687945-54.973158-54.973157V56.372474c0-30.285212 24.687945-54.973158 54.973158-54.973157h293.256808c30.285212 0 54.973158 24.687945 54.973157 54.973157v82.259834c0 30.385163-24.587994 55.073109-54.973157 55.073109zM279.33869 51.374915c-2.698682 0-4.99756 2.298878-4.99756 4.997559v82.259834c0 2.698682 2.298878 4.99756 4.99756 4.99756h293.256808c2.698682 0 4.99756-2.298878 4.99756-4.99756V56.372474c0-2.698682-2.298878-4.99756-4.99756-4.997559H279.33869z" p-id="4933" fill="#13227a"></path><path d="M445.957333 1024H75.538202c-40.97999 0-74.36369-38.381259-74.36369-85.458272V158.02284C1.174512 110.945827 34.558211 72.564568 75.538202 72.564568h170.716642c13.793265 0 24.987799 11.194534 24.987799 24.987799s-11.194534 24.987799-24.987799 24.987799H75.538202c-12.993655 0-24.388092 16.591898-24.388092 35.482674V938.541728c0 18.890776 11.394436 35.482674 24.388092 35.482674H445.957333c13.793265 0 24.987799 11.194534 24.987799 24.987799s-11.194534 24.987799-24.987799 24.987799zM825.771877 562.825183c-13.793265 0-24.987799-11.194534-24.987799-24.987799v-379.814544c0-18.890776-11.394436-35.482674-24.388092-35.482674H602.980661c-13.793265 0-24.987799-11.194534-24.987799-24.987799s11.194534-24.987799 24.987799-24.987799h173.415325c40.97999 0 74.36369 38.381259 74.363689 85.458272V537.737433c0 13.893216-11.194534 25.08775-24.987798 25.08775z" p-id="4934" fill="#13227a"></path><path d="M488.236689 1023.600195c-6.69673 0-13.293509-2.698682-17.991216-7.696242-6.296925-6.496828-8.495852-15.89224-5.89712-24.488043L509.926098 840.189751c1.199414-3.898097 3.298389-7.49634 6.296925-10.394924L869.750403 476.167496c4.697706-4.697706 10.994632-7.296437 17.691361-7.296437s12.993655 2.598731 17.691362 7.296437l110.845876 110.845876c9.795217 9.795217 9.795217 25.587506 0 35.382724L662.451623 975.923475c-3.198438 3.198438-7.096535 5.397365-11.394437 6.496828l-156.523572 40.380283c-2.198926 0.599707-4.297901 0.79961-6.296925 0.799609z m67.76691-162.920449l-30.98487 102.749829 106.947779-27.58653L963.004868 604.704734l-75.563104-75.563104-331.438165 331.538116z" p-id="4935" fill="#13227a"></path><path d="M905.732833 722.24734c-6.396877 0-12.793753-2.398829-17.691362-7.296437L777.195595 604.105027c-9.795217-9.795217-9.795217-25.587506 0-35.382723 9.795217-9.795217 25.587506-9.795217 35.382724 0l110.845876 110.945827c9.795217 9.795217 9.795217 25.587506 0 35.382723-4.897609 4.797657-11.294485 7.196486-17.691362 7.196486zM679.243424 362.423036H176.089104c-13.793265 0-24.987799-11.194534-24.987798-24.987799s11.194534-24.987799 24.987798-24.987799h503.15432c13.793265 0 24.987799 11.194534 24.987799 24.987799s-11.094583 24.987799-24.987799 24.987799zM682.441862 526.64285H176.089104c-13.793265 0-24.987799-11.194534-24.987798-24.987799s11.194534-24.987799 24.987798-24.987799h506.352758c13.793265 0 24.987799 11.194534 24.987799 24.987799s-11.194534 24.987799-24.987799 24.987799zM542.810041 690.862665H176.089104c-13.793265 0-24.987799-11.194534-24.987798-24.987799s11.194534-24.987799 24.987798-24.987799h366.720937c13.793265 0 24.987799 11.194534 24.987799 24.987799s-11.194534 24.987799-24.987799 24.987799zM402.678465 855.18243H176.089104c-13.793265 0-24.987799-11.194534-24.987798-24.987798s11.194534-24.987799 24.987798-24.987799h226.589361c13.793265 0 24.987799 11.194534 24.987799 24.987799s-11.194534 24.987799-24.987799 24.987798z" p-id="4936" fill="#13227a"></path></svg>