<?xml version="1.0" standalone="no"?><!DOCTYPE svg PUBLIC "-//W3C//DTD SVG 1.1//EN" "http://www.w3.org/Graphics/SVG/1.1/DTD/svg11.dtd"><svg t="1591804346527" class="icon" viewBox="0 0 1024 1024" version="1.1" xmlns="http://www.w3.org/2000/svg" p-id="4452" width="32" height="32" xmlns:xlink="http://www.w3.org/1999/xlink"><defs><style type="text/css"></style></defs><path d="M619.5 0H395c-27.5 0-49.6 24.5-49.6 54.8 0 30.4 22.1 54.9 49.6 54.9h225.9c26.2 0 48.2-24.6 48.2-54.9 0-30.3-22-54.8-49.6-54.8z" fill="#13227a" p-id="4453"></path><path d="M863.3 36.6H751.5c1.1 6 1.8 12.1 1.8 18.2 0 46.1-33.4 91.5-73.2 91.5H336.6c-41.9 0-75.4-45.4-75.4-91.5 0-6.1 0.7-12.2 1.8-18.2H149.9c-91 0-113.3 51.6-113.3 126v736.8c0 79.9 32 124.6 120.2 124.6h699.7c88.2 0 131-35.1 131-124.6V162.5c-0.1-74.4-40.2-125.9-124.2-125.9zM748.4 764.1H262.2c-17.9 0-35.8-22-35.8-39.9s15.1-33.2 33.1-33.2h484.8c17.9 0 33.1 13.9 34.4 33.2 0 17.9-12.4 39.9-30.3 39.9z m2-195.1H264.2c-17.9 0-29.3-19.3-29.3-37.2 0-18 15.1-35.9 33.1-35.9h484.8c17.9 0 33.1 16.6 34.4 35.9-0.1 17.9-18.9 37.2-36.8 37.2z m0-200.4H264.2c-17.9 0-29.3-19.3-29.3-37.2 0-18 15.1-35.9 33.1-35.9h484.8c17.9 0 33.1 16.6 34.4 35.9-0.1 17.9-18.9 37.2-36.8 37.2z" fill="#13227a" p-id="4454"></path></svg>