<?xml version="1.0" standalone="no"?><!DOCTYPE svg PUBLIC "-//W3C//DTD SVG 1.1//EN" "http://www.w3.org/Graphics/SVG/1.1/DTD/svg11.dtd"><svg t="1591802851377" class="icon" viewBox="0 0 1024 1024" version="1.1" xmlns="http://www.w3.org/2000/svg" p-id="4193" width="32" height="32" xmlns:xlink="http://www.w3.org/1999/xlink"><defs><style type="text/css"></style></defs><path d="M499.968 584.049778c-130.076444 0-385.365333 62.634667-385.365333 192.682666v108.572445h499.484444c-74.325333-95.658667-50.858667-224.768 21.333333-285.326222-49.493333-10.666667-97.735111-15.928889-135.452444-15.928889z m0-84.110222c105.984 0 192.682667-86.698667 192.682667-192.682667s-86.698667-192.682667-192.682667-192.682667-192.682667 86.698667-192.682667 192.682667 86.698667 192.682667 192.682667 192.682667z" fill="#13227a" p-id="4194"></path><path d="M810.666667 782.222222H881.777778v-56.888889h-71.111111V654.222222h-56.888889v71.111111H682.666667v56.888889h71.111111V853.333333h56.888889v-71.111111z m-28.444445 156.444445a184.888889 184.888889 0 1 1 0-369.777778 184.888889 184.888889 0 0 1 0 369.777778z" fill="#13227a" p-id="4195"></path></svg>