<?xml version="1.0" standalone="no"?><!DOCTYPE svg PUBLIC "-//W3C//DTD SVG 1.1//EN" "http://www.w3.org/Graphics/SVG/1.1/DTD/svg11.dtd"><svg t="1590942490071" class="icon" viewBox="0 0 1024 1024" version="1.1" xmlns="http://www.w3.org/2000/svg" p-id="3430" width="32" height="32" xmlns:xlink="http://www.w3.org/1999/xlink"><defs><style type="text/css"></style></defs><path d="M789.919 383.976h-30.885v-119.666c0-143.864-102.523-256.525-248.175-256.525-146.239 0-245.895 115.062-245.895 256.525v119.666h-30.883c-68.112 0-123.511 56.234-123.511 125.396v376.141c0 69.165 55.4 125.396 123.511 125.396h555.838c68.111 0 123.512-56.233 123.512-125.396v-376.141c0-69.165-55.402-125.396-123.512-125.396zM326.708 264.31c0-106.832 71.956-193.826 184.15-193.826 111.022 0 186.408 85.133 186.408 193.826v119.666h-370.558v-119.666zM851.661 885.515c0 34.581-27.7 62.699-61.743 62.699h-555.838c-34.044 0-61.768-28.116-61.768-62.699v-376.141c0-34.582 27.724-62.699 61.768-62.699h555.838c34.043 0 61.743 28.116 61.743 62.699v376.141zM511.986 572.024c-34.092 0-61.743 28.115-61.743 62.746 0 23.209 12.428 43.457 30.883 54.296v102.45c0 17.292 13.814 31.3 30.859 31.3 17.071 0 30.885-14.008 30.885-31.3v-102.455c18.459-10.841 30.886-31.086 30.886-54.292 0-34.63-27.653-62.746-61.771-62.746z" p-id="3431" fill="#DCDFE6"></path></svg>