<?xml version="1.0" standalone="no"?><!DOCTYPE svg PUBLIC "-//W3C//DTD SVG 1.1//EN" "http://www.w3.org/Graphics/SVG/1.1/DTD/svg11.dtd"><svg t="1590942465946" class="icon" viewBox="0 0 1024 1024" version="1.1" xmlns="http://www.w3.org/2000/svg" p-id="2565" width="32" height="32" xmlns:xlink="http://www.w3.org/1999/xlink"><defs><style type="text/css"></style></defs><path d="M652.3 562.7C741.6 513.3 802 418.2 802 309c0-160.2-129.8-290-290-290S222 148.8 222 309c0 109.2 60.4 204.3 149.7 253.7C184 622.2 48 797.7 48 1005h58c0-224.2 181.8-406 406-406s406 181.8 406 406h58c0-207.3-136-382.8-323.7-442.3zM280 309c0-128.1 103.9-232 232-232s232 103.9 232 232-103.9 232-232 232-232-103.9-232-232z" p-id="2566" fill="#DCDFE6"></path></svg>