<?xml version="1.0" standalone="no"?><!DOCTYPE svg PUBLIC "-//W3C//DTD SVG 1.1//EN" "http://www.w3.org/Graphics/SVG/1.1/DTD/svg11.dtd"><svg t="1591537847591" class="icon" viewBox="0 0 1024 1024" version="1.1" xmlns="http://www.w3.org/2000/svg" p-id="2651" width="32" height="32" xmlns:xlink="http://www.w3.org/1999/xlink"><defs><style type="text/css"></style></defs><path d="M898.520615 498.648615a56.123077 56.123077 0 0 1-47.300923 36.627693L323.899077 593.368615l11.618461 54.114462c2.756923 12.996923 13.351385 22.055385 25.67877 22.055385h519.404307a19.692308 19.692308 0 1 1 0 39.384615H361.156923c-30.562462 0-57.580308-22.370462-64.118154-53.169231l-23.906461-111.222154-69.316923-320.905846c-0.118154-0.551385 0.118154-1.102769 0-1.693538l-25.993847-121.107693c-2.756923-12.996923-13.390769-22.055385-25.639384-22.055384H59.076923a19.692308 19.692308 0 1 1 0-39.384616h93.105231c31.035077 0 57.422769 21.858462 64.196923 53.169231l22.961231 107.244308h688.64A56.674462 56.674462 0 0 1 981.070769 276.086154l-82.550154 222.601846zM437.523692 748.307692c54.350769 0 98.461538 44.189538 98.461539 98.461539s-44.110769 98.461538-98.461539 98.461538a98.579692 98.579692 0 0 1-98.461538-98.461538c0-54.272 44.150154-98.461538 98.461538-98.461539z m336.029539 0c54.311385 0 98.461538 44.189538 98.461538 98.461539S827.864615 945.230769 773.513846 945.230769a98.579692 98.579692 0 0 1-98.461538-98.461538c0-54.272 44.110769-98.461538 98.461538-98.461539z m-336.029539 157.538462c32.571077 0 59.076923-26.505846 59.076923-59.076923s-26.505846-59.076923-59.076923-59.076923-59.076923 26.505846-59.076923 59.076923 26.505846 59.076923 59.076923 59.076923z m336.029539 0c32.571077 0 59.076923-26.505846 59.076923-59.076923s-26.505846-59.076923-59.076923-59.076923-59.076923 26.505846-59.076923 59.076923 26.505846 59.076923 59.076923 59.076923z" p-id="2652" fill="#13227a"></path></svg>