<?xml version="1.0" standalone="no"?><!DOCTYPE svg PUBLIC "-//W3C//DTD SVG 1.1//EN" "http://www.w3.org/Graphics/SVG/1.1/DTD/svg11.dtd"><svg t="1591537892021" class="icon" viewBox="0 0 1024 1024" version="1.1" xmlns="http://www.w3.org/2000/svg" p-id="3589" width="32" height="32" xmlns:xlink="http://www.w3.org/1999/xlink"><defs><style type="text/css"></style></defs><path d="M340.36224 857.5488c-26.7264 0-48.50176-21.87776-48.50176-48.6912 0-26.84928 21.77536-48.71168 48.50176-48.71168 26.72128 0 48.49152 21.8624 48.49152 48.71168 0 26.81344-21.77024 48.6912-48.49152 48.6912z m0-146.08896c-53.54496 0-97.00352 43.72992-97.00352 97.39776 0 53.76 43.45344 97.3824 97.00352 97.3824 53.54496 0 96.98816-43.71968 96.98816-97.3824 0-53.66784-43.44832-97.39776-96.98816-97.39776z m426.17344 146.08896c-26.73664 0-48.52224-21.87776-48.52224-48.6912 0-26.84928 21.7856-48.71168 48.52224-48.71168 26.7008 0 48.48128 21.8624 48.48128 48.71168 0 26.81344-21.888 48.6912-48.48128 48.6912z m0-146.08896c-53.5552 0-96.9984 43.72992-96.9984 97.39776 0 53.76 43.4432 97.3824 96.9984 97.3824 53.54496 0 96.9728-43.71968 96.9728-97.3824 0-53.66784-43.55072-97.39776-96.9728-97.39776z m58.37312-260.50048c-2.5344 15.4368-18.94912 30.6432-34.50368 32.01024l-521.47712 42.57792-48.1792-276.18816h620.05248c5.6832 0 10.41408 1.90464 13.34272 5.49376 2.93888 3.59424 4.10624 8.56064 3.15392 14.16192l-32.38912 181.94432z m66.38592-227.584c-12.2112-14.36672-30.6176-22.71232-50.49344-22.71232H212.64896l-4.84352-29.05088C201.4976 133.26336 166.15424 87.04 127.4368 87.04h-16.09728C97.98656 87.04 87.04 97.92 87.04 111.44192c0 13.4144 10.83392 24.41216 24.29952 24.41216h16.09728c14.94016 0 30.08512 29.2096 32.50688 49.31072l81.00352 441.69216c6.31296 32.94208 41.65632 62.9504 80.36864 62.9504h487.05024c13.3632 0 24.29952-10.89024 24.29952-24.40192 0-13.40928-10.82368-24.40192-24.29952-24.40192H321.41824c-14.94016 0-30.09024-12.98944-32.50688-27.6992l-11.99616-39.56224 517.68832-42.2912c37.56032-3.24096 71.95648-35.0464 78.17216-72.56576l32.49152-181.95456c3.27168-19.54304-1.78176-39.08096-13.97248-53.5552z" p-id="3590" fill="#13227a"></path></svg>