<?xml version="1.0" standalone="no"?><!DOCTYPE svg PUBLIC "-//W3C//DTD SVG 1.1//EN" "http://www.w3.org/Graphics/SVG/1.1/DTD/svg11.dtd"><svg t="1591540122339" class="icon" viewBox="0 0 1026 1024" version="1.1" xmlns="http://www.w3.org/2000/svg" p-id="7633" width="32.0625" height="32" xmlns:xlink="http://www.w3.org/1999/xlink"><defs><style type="text/css"></style></defs><path d="M876 737.6c-37.6-55.2-88-100-143.2-132.8 30.4-24.8 55.2-55.2 75.2-88 32.8-52.8 48-112.8 48-175.2 0-90.4-35.2-177.6-100-240.8C691.2 36 605.6 0.8 515.2 0.8s-177.6 35.2-240 100c-64.8 64.8-100 150.4-100 240.8 0 62.4 17.6 122.4 48 175.2 20 32.8 44.8 62.4 75.2 88-60 32.8-110.4 80-148 132.8-50.4 72.8-77.6 160-77.6 250.4 0 20 15.2 35.2 35.2 35.2H920c20 0 35.2-15.2 35.2-35.2-0.8-90.4-28.8-175.2-79.2-250.4z" fill="#13227a" p-id="7634"></path><path d="M644 406.4c-4.8-10.4-15.2-17.6-27.2-17.6-4.8 0-10.4 2.4-15.2 4.8-27.2 15.2-60 24.8-92.8 24.8-30.4 0-60-7.2-88-20-4.8-2.4-10.4-2.4-15.2-2.4-12.8 0-22.4 7.2-27.2 17.6-7.2 15.2-2.4 35.2 15.2 42.4 35.2 17.6 77.6 27.2 117.6 27.2 42.4 0 88-10.4 125.6-32.8 7.2-4.8 12.8-10.4 15.2-20-3.2-8.8-5.6-16-8-24z" fill="#13227a" p-id="7635"></path></svg>