<?xml version="1.0" standalone="no"?><!DOCTYPE svg PUBLIC "-//W3C//DTD SVG 1.1//EN" "http://www.w3.org/Graphics/SVG/1.1/DTD/svg11.dtd"><svg t="1591540145971" class="icon" viewBox="0 0 1024 1024" version="1.1" xmlns="http://www.w3.org/2000/svg" p-id="8509" width="32" height="32" xmlns:xlink="http://www.w3.org/1999/xlink"><defs><style type="text/css"></style></defs><path d="M511.945461 35.092586a261.907227 261.907227 0 0 1 185.171568 447.078795 263.193953 263.193953 0 0 1-58.019645 43.865659L564.993664 567.329247l81.882564 23.395018a441.756429 441.756429 0 0 1 179.439788 100.657065 410.465592 410.465592 0 0 1 129.959326 297.701606H67.84953a410.407105 410.407105 0 0 1 129.842351-297.584631 441.873404 441.873404 0 0 1 179.498276-100.77404l81.882563-23.044093-74.33767-41.292207a262.199665 262.199665 0 0 1-58.019645-414.267282A260.211089 260.211089 0 0 1 511.945461 35.092586m0-35.092528a297.11673 297.11673 0 0 0-144.288774 556.742943 474.977355 474.977355 0 0 0-193.827725 108.786834A444.505344 444.505344 0 0 0 32.757003 994.288327a29.711673 29.711673 0 0 0 29.594698 29.711673h899.070545a29.711673 29.711673 0 0 0 29.711673-29.711673 444.505344 444.505344 0 0 0-141.071959-328.700004 474.977355 474.977355 0 0 0-193.827725-108.786834A297.058242 297.058242 0 0 0 511.945461 0.000058z" fill="#13227a" p-id="8510"></path></svg>